<svg width="16" height="16" viewBox="0 0 16 16" xmlns="http://www.w3.org/2000/svg"><path d="M0 15l1.275-1.25-.892-.875.891-.875-.891-.875.891-.875L0 9h16l-1.274 1.25.892.875-.892.875.89.875-.89.874L16 14.999 0 15zm2.873-1.734h.628v-1.035h.954v1.035h.627v-2.685h-.627v1.036H3.5V10.58h-.628v2.685zm2.56.004h2.196V10.6h-.624v2.057h-.947L6.056 10.6h-.624v2.67zm2.566-1.032h1.57v.418L8 12.654v.612h2.195v-1.639H8.623v-.416h1.571l-.004-.612H8v1.639zm2.558 1.028h.627v-1.035h.954v1.035h.628v-2.685h-.628v1.036h-.954V10.58h-.627v2.685zM3.5 6a1.5 1.5 0 110-3 1.5 1.5 0 010 3zm9 0a1.5 1.5 0 110-3 1.5 1.5 0 010 3z" fill="#000" fill-rule="nonzero"/></svg>
